<?xml version="1.0" standalone="no"?>
<!DOCTYPE svg PUBLIC "-//W3C//DTD SVG 20010904//EN"
 "http://www.w3.org/TR/2001/REC-SVG-20010904/DTD/svg10.dtd">
<svg version="1.0" xmlns="http://www.w3.org/2000/svg"
 width="303.000000pt" height="144.000000pt" viewBox="0 0 303.000000 144.000000"
 preserveAspectRatio="xMidYMid meet">

<g transform="translate(0.000000,144.000000) scale(0.100000,-0.100000)"
fill="#000000" stroke="none">
<path d="M335 848 c-13 -57 -55 -272 -55 -284 0 -11 17 -14 69 -14 l68 0 23
115 23 115 39 0 c30 0 39 -4 35 -14 -3 -7 -9 -34 -12 -60 -7 -44 -9 -46 -40
-46 -25 0 -34 -5 -39 -22 -10 -41 -7 -48 24 -48 33 0 33 0 21 -52 l-9 -38 69
0 c38 0 69 2 69 3 0 2 14 71 30 153 l31 149 -22 18 c-16 13 -40 17 -100 17
-64 0 -79 3 -79 15 0 12 -14 15 -70 15 -64 0 -70 -2 -75 -22z"/>
<path d="M2480 852 c0 -34 -21 -42 -107 -42 -46 0 -83 -3 -83 -7 0 -5 -3 -18
-6 -30 -6 -21 -3 -23 40 -23 43 0 46 -2 41 -22 -7 -31 -45 -219 -45 -224 0 -2
31 -4 70 -4 64 0 70 2 75 23 7 30 45 218 45 223 0 2 14 4 30 4 36 0 80 38 80
69 0 11 3 26 6 35 5 14 -5 16 -70 16 -67 0 -76 -2 -76 -18z"/>
<path d="M721 683 c-17 -87 -31 -164 -31 -170 0 -9 20 -13 69 -13 l68 0 32
158 c17 86 31 163 31 170 0 8 -20 12 -69 12 l-68 0 -32 -157z"/>
<path d="M956 818 c-3 -13 -6 -26 -6 -30 0 -5 47 -8 105 -8 114 0 111 2 99
-59 -6 -28 -10 -31 -44 -31 -35 0 -36 1 -32 30 l4 30 -70 0 -71 0 -10 -52 c-5
-29 -16 -86 -24 -126 l-15 -73 72 3 71 3 11 53 c7 30 14 56 17 58 3 3 14 -21
24 -53 l20 -58 71 -3 c40 -2 72 -1 72 1 0 2 -9 29 -19 60 -20 58 -19 67 9 67
28 0 39 22 59 118 l18 92 -177 0 c-176 0 -178 0 -184 -22z"/>
<path d="M1573 830 c-12 -5 -26 -17 -31 -27 -13 -23 -52 -217 -52 -255 0 -40
28 -48 175 -48 l123 0 4 30 5 30 -84 0 c-46 0 -83 4 -83 9 0 5 9 53 20 106 11
53 20 99 20 101 0 2 39 5 88 6 87 3 87 3 90 31 l3 27 -128 -1 c-70 0 -138 -4
-150 -9z"/>
<path d="M2125 828 c-2 -7 -13 -62 -25 -123 -29 -153 -26 -145 -66 -145 -19 0
-34 2 -34 4 0 5 38 193 45 224 5 22 4 22 -85 22 l-90 0 0 -34 c0 -19 5 -36 11
-38 8 -3 7 -26 -5 -82 -21 -103 -21 -133 3 -146 26 -13 249 -13 289 1 38 13
46 33 72 179 12 63 23 123 26 133 5 15 -3 17 -66 17 -48 0 -72 -4 -75 -12z"/>
<path d="M1340 710 c-43 -43 -13 -100 53 -100 43 0 67 21 67 59 0 56 -78 83
-120 41z"/>
</g>
</svg>
